<svg width="1em" height="1em" viewBox="0 0 30 30" fill="none" xmlns="http://www.w3.org/2000/svg"> <path d="M1.5 3.25C1.08579 3.25 0.75 3.58579 0.75 4C0.75 4.41421 1.08579 4.75 1.5 4.75V3.25ZM5.08495 4L5.81047 3.80995C5.72406 3.48006 5.42597 3.25 5.08495 3.25V4ZM9.3869 20.4225L8.66138 20.6126C8.74779 20.9424 9.04588 21.1725 9.3869 21.1725V20.4225ZM23.7267 20.4225V21.1725C24.0443 21.1725 24.3275 20.9724 24.4336 20.673L23.7267 20.4225ZM28.0287 8.28413L28.7356 8.53467C28.8169 8.30508 28.7818 8.05028 28.6412 7.85135C28.5006 7.65242 28.2722 7.53413 28.0287 7.53413V8.28413ZM7.23593 7.53413C6.82171 7.53413 6.48593 7.86992 6.48593 8.28413C6.48593 8.69834 6.82171 9.03413 7.23593 9.03413V7.53413ZM1.5 4.75H5.08495V3.25H1.5V4.75ZM4.35943 4.19005L8.66138 20.6126L10.1124 20.2325L5.81047 3.80995L4.35943 4.19005ZM9.3869 21.1725H23.7267V19.6725H9.3869V21.1725ZM24.4336 20.673L28.7356 8.53467L27.3217 8.03359L23.0198 20.172L24.4336 20.673ZM28.0287 7.53413H7.23593V9.03413H28.0287V7.53413Z" fill="black"/> <circle cx="9.51628" cy="25.9109" r="1.7" fill="black"/> <circle cx="23.4123" cy="25.9109" r="1.7" fill="black"/> </svg>