<svg version="1.0" xmlns="http://www.w3.org/2000/svg" viewBox="0 0 195 30"><style>path, polygon { fill:#303538; }</style><path fill="#303538" d="M176.6,28.5c2.1,0.9,4.7,1.3,8,1.3c2.8,0,5.3-0.8,7.2-2.1c1.9-1.3,2.8-3.4,2.8-6.3c0-1.1-0.2-2.3-0.4-3.2
	c-0.4-0.9-0.8-1.7-1.5-2.3c-0.8-0.8-1.5-1.3-2.1-1.7c-0.8-0.4-1.7-0.9-3-1.7c-2.7-1.3-4-2.7-4-4c0-0.9,0.6-1.5,0.9-1.7
	c0.6-0.2,1.3-0.4,2.3-0.4c1.7,0,3.2,0.2,4.6,0.6c0.2,0,0.4,0,0.6,0c0.4,0,0.6-0.2,0.8-0.6l0.8-4c0-0.4,0-0.9-0.8-1.1
	c-1.7-0.8-4-1.1-6.6-1.1c-3.4,0-5.9,0.6-7.4,1.9c-1.9,1.3-2.7,3.4-2.7,6.3c0,1.3,0.2,2.5,0.6,3.6c0.4,0.9,0.9,1.9,1.5,2.7
	c0.8,0.8,1.5,1.3,2.1,1.7c0.8,0.4,1.5,0.9,2.7,1.5c1.5,0.8,2.5,1.5,3,1.9c0.6,0.6,0.9,1.1,0.9,1.9c0,1.5-1.5,2.3-4.4,2.3
	c-1.7,0-3.4-0.4-4.9-0.9c-0.2,0-0.4-0.2-0.6-0.2s-0.4,0-0.6,0.8l-0.8,4c-0.2,0.6,0,0.8,0,0.8C175.8,28.1,176.2,28.3,176.6,28.5z
	 M102.8,26.8c0.9,1.1,2.1,1.9,3.4,2.3c1.3,0.6,3,0.8,4.7,0.8c1.9,0,3.4-0.2,4.7-0.8s2.5-1.3,3.4-2.3c0.9-1.1,1.7-2.7,2.3-4.6
	c0.6-1.9,0.8-4.4,0.8-7.2s-0.2-5.3-0.8-7.2s-1.3-3.4-2.2-4.6s-2.1-1.9-3.4-2.3c-1.3-0.6-3-0.8-4.7-0.8c-1.9,0-3.4,0.2-4.7,0.8
	c-1.3,0.4-2.5,1.3-3.4,2.3c-0.9,1.1-1.7,2.7-2.3,4.6s-0.8,4.4-0.8,7.2s0.2,5.3,0.8,7.2C101.1,24.1,101.8,25.6,102.8,26.8z
	 M108.1,8.5c0.6-1.3,1.5-1.9,2.8-1.9s2.5,0.8,3,1.9s0.8,3.4,0.8,6.6s-0.2,5.3-0.8,6.5c-0.6,1.3-1.5,1.9-3,1.9
	c-1.3,0-2.5-0.8-2.8-1.9c-0.6-1.1-0.8-3.4-0.8-6.5C107.3,11.8,107.5,9.7,108.1,8.5z M128,26.8c0.9,1.1,2.1,1.9,3.4,2.3
	c1.3,0.6,3,0.8,4.7,0.8c1.9,0,3.4-0.2,4.7-0.8c1.3-0.6,2.5-1.3,3.4-2.3c0.9-1.1,1.7-2.7,2.3-4.6s0.8-4.4,0.8-7.2s-0.2-5.3-0.8-7.2
	s-1.3-3.4-2.3-4.6c-0.9-1.1-2.1-1.9-3.4-2.3c-1.3-0.6-3-0.8-4.7-0.8c-1.9,0-3.4,0.2-4.7,0.8c-1.3,0.4-2.4,1.4-3.4,2.3
	c-0.9,1.1-1.7,2.7-2.3,4.6c-0.6,1.9-0.8,4.4-0.8,7.2s0.2,5.3,0.8,7.2C126.3,24.1,127.1,25.6,128,26.8z M133.3,8.5
	c0.6-1.3,1.5-1.9,2.8-1.9s2.5,0.8,3,1.9s0.8,3.4,0.8,6.6s-0.2,5.3-0.8,6.5c-0.6,1.3-1.5,1.9-3,1.9c-1.3,0-2.5-0.8-2.8-1.9
	c-0.6-1.1-0.8-3.4-0.8-6.5C132.6,11.8,132.9,9.7,133.3,8.5z M152.7,29.4h5.5c0.8,0,0.9-0.2,0.9-0.9V16.9v-1.5l0.6,1.3l5.5,11.6
	c0.4,0.8,0.8,0.9,1.5,0.9h5.9c0.4,0,0.6-0.2,0.6-0.2c0-0.2,0.2-0.4-0.2-0.8l-7.2-14.6v-0.2v-0.2l6.8-11.8c0.4-0.2,0.4-0.4,0.2-0.6
	c0,0-0.2-0.2-0.6-0.2h-5.9c-0.6,0-1.1,0.4-1.5,1.1l-5.1,8.9l-0.6,1.1v-1.3V1.5c0-0.8-0.2-0.9-0.9-0.9h-5.5c-0.8,0-0.9,0.2-0.9,0.9
	v26.9C151.7,29.2,151.9,29.4,152.7,29.4z M38.3,29.4h8.3c4.2,0,7.4-1.1,9.3-3.2c1.9-2.1,2.8-5.9,2.8-11.2s-0.9-8.9-2.8-11.2
	c-1.9-2.1-5.1-3.2-9.3-3.2h-8.3c-0.8,0-0.9,0.2-0.9,0.9v26.9C37.3,29.2,37.7,29.4,38.3,29.4z M44.9,22.6V7.4V7h0.4h1.1
	c1.7,0,3,0.6,3.8,1.7s1.1,3,1.1,6.3c0,3-0.4,5.1-1.1,6.3S48.1,23,46.4,23h-1.1h-0.4V22.6z M76.4,29.4h10.2c6.8,0,10.1-2.7,10.1-8.3
	c0-1.7-0.4-3.2-1.1-4.4c-0.8-1.1-1.7-1.9-2.8-2.3l-0.5-0.2L91.4,14l0.8-0.4l0.4-0.2c2.1-0.9,3.2-2.8,3.2-5.7c0-2.7-0.8-4.6-2.3-5.5
	c-1.5-1.1-4.2-1.5-7.8-1.5h-9.5c-0.8,0-0.9,0.2-0.9,0.9v26.9C75.5,29.2,75.6,29.4,76.4,29.4z M82.7,11.8V6.7V6.5H83h2.7
	c1.1,0,1.9,0.2,2.3,0.6c0.6,0.4,0.8,1.1,0.8,2.1c0,0.9-0.2,1.7-0.8,2.3c-0.6,0.4-1.3,0.8-2.3,0.8H83h-0.4
	C82.7,12.2,82.7,11.8,82.7,11.8z M82.7,23.3v-5.7v-0.4H83h3c1.1,0,1.9,0.2,2.5,0.8c0.6,0.6,0.8,1.3,0.8,2.5c0,1.1-0.2,1.9-0.8,2.5
	c-0.6,0.6-1.3,0.8-2.5,0.8h-3h-0.4L82.7,23.3L82.7,23.3z M0.5,29.4H6c0.8,0,1-0.2,1-0.9v-7.6v-0.4h0.4h1.5h0.2v0.2l3.6,7.8
	c0.4,0.6,0.8,0.9,1.5,0.9h5.7c0.4,0,0.6-0.2,0.6-0.2c0-0.2,0-0.6-0.2-0.8l-4.6-8.5l-0.2-0.4l0.4-0.2h0.2c3-1.3,4.6-4.2,4.6-8.5
	c0-3.8-0.9-6.5-2.7-8c-1.5-1.3-4.4-2.3-8.3-2.3H0.5c-0.6,0-0.9,0.4-0.9,0.9v26.9C-0.4,29.2-0.1,29.4,0.5,29.4z M7,14.4V7.2V7h0.4
	h2.3C11,7,12,7.4,12.5,7.9c0.6,0.6,0.8,1.5,0.8,3c0,1.3-0.2,2.3-0.8,3c-0.6,0.4-1.5,0.8-2.8,0.8H7.3H7V14.4z M26.1,29.4h5.5
	c0.8,0,0.9-0.2,0.9-0.9v-27c0-0.8-0.2-0.9-0.9-0.9h-5.5c-0.8,0-0.9,0.2-0.9,0.9v26.9C25.2,29.2,25.4,29.4,26.1,29.4z M64.1,29.4h5.5
	c0.8,0,0.9-0.2,0.9-0.9v-27c0-0.8-0.2-0.9-0.9-0.9h-5.5c-0.8,0-0.9,0.2-0.9,0.9v26.9C63.1,29.2,63.5,29.4,64.1,29.4z"/></svg>