<svg version="1.0" xmlns="http://www.w3.org/2000/svg" viewBox="0 0 212 32"><style>path, polygon { fill:#303538; }</style><path fill="#303538" d="M205.682,20.542c4.016-1.382,5.87-4.475,5.87-9.81,0-7.67-3.8-10.731-12.308-10.731h-8.612c-.605,0-.951.382-.951,1.048V30.606a.92.92,0,0,0,.991,1.047H192.8a.946.946,0,0,0,.991-1.047V21.419h5.449c.731,0,1.424-.024,2.085-.071l5.608,9.62a1.43,1.43,0,0,0,1.253.685h2.5a.808.808,0,0,0,.77-.4,1.037,1.037,0,0,0-.13-1.05Zm-6.438-3.209H193.8V4.087h5.449c5.838,0,8.112,1.6,8.112,6.645C207.356,15.742,205.082,17.333,199.244,17.333ZM18.3,20.56c3.25-1.559,4.9-4.693,4.9-9.312,0-4.163-.953-7.106-2.831-8.747C18.465.841,15.32,0,11.022,0h-10C.276,0,0,.277,0,1.026v29.6c0,.748.277,1.026,1.021,1.026H7.1c.746,0,1.023-.278,1.023-1.026v-8.64H10.4l.1.205,4.058,8.473a1.692,1.692,0,0,0,1.676.988h6.175c.519,0,.6-.181.63-.251h0a1.054,1.054,0,0,0-.145-.889l-4.928-9.372-.175-.336.34-.163ZM14.06,14.5a3.98,3.98,0,0,1-3.13,1.043h-2.8V6.907h2.8a4.04,4.04,0,0,1,3.12.989,4.925,4.925,0,0,1,.88,3.352A4.89,4.89,0,0,1,14.06,14.5Zm22.1-13.47v29.6c0,.749-.276,1.027-1.02,1.027h-6.13c-.746,0-1.023-.278-1.023-1.027V1.027C27.988.278,28.265,0,29.01,0h6.13C35.885,0,36.16.278,36.161,1.027ZM51.457,0H42.47c-.744,0-1.021.278-1.021,1.027v29.6c0,.748.277,1.027,1.021,1.027h9.08c4.67,0,8.1-1.193,10.193-3.542,2.11-2.367,3.18-6.5,3.18-12.285s-1.078-9.917-3.2-12.283C59.612,1.191,56.158,0,51.457,0Zm4.055,22.642a4.6,4.6,0,0,1-4.192,1.917h-1.7V7.093h1.6A4.721,4.721,0,0,1,55.461,9c.8,1.213,1.2,3.445,1.2,6.824S56.282,21.431,55.512,22.642ZM123.321.953h0C123.14.413,122.937,0,122.141,0h-2.747c-.8,0-1,.412-1.18.949L106.842,30.518a.892.892,0,0,0,.107.8.848.848,0,0,0,.706.33h2.419c.7,0,.873-.475,1.016-.861L113.9,23.3h13.75l2.8,7.5a1.058,1.058,0,0,0,1.054.856h2.378a.845.845,0,0,0,.706-.33.9.9,0,0,0,.1-.815Zm-7.908,18.305,5.374-14.335,5.352,14.335Zm69.811,9.312v1.991c0,.949-.621,1.091-.991,1.091H165.4c-.658,0-.991-.352-.991-1.047V1a.882.882,0,0,1,.95-1H184.11a.908.908,0,0,1,.991,1V3.038a.947.947,0,0,1-.991,1.048H168.481V13.8h15.178c.6,0,.95.381.95,1.047V16.7c0,.667-.346,1.048-.95,1.048H168.481v9.818h15.752A.907.907,0,0,1,185.224,28.57ZM147.551,0h-8.613c-.6,0-.95.382-.95,1.048V30.606a.92.92,0,0,0,.991,1.047h2.132a.947.947,0,0,0,.991-1.047V21.419h5.449c8.512,0,12.307-3.047,12.307-10.687C159.858,3.062,156.063,0,147.551,0Zm0,17.332H142.1V4.087h5.449c5.837,0,8.111,1.6,8.111,6.645C155.662,15.742,153.388,17.333,147.551,17.333ZM95.87,0H87.258c-.6,0-.95.381-.95,1.048V30.606h0a.92.92,0,0,0,.991,1.047H89.43a.946.946,0,0,0,.991-1.047V21.419h5.45c8.511,0,12.307-3.047,12.307-10.687C108.178,3.061,104.382,0,95.87,0Zm0,17.332H90.421V4.087h5.45c5.837,0,8.111,1.6,8.111,6.645C103.982,15.742,101.708,17.333,95.87,17.333ZM77.934,1.027v29.6c0,.749-.276,1.027-1.02,1.027h-6.13c-.746,0-1.023-.278-1.023-1.027V1.027C69.761.278,70.038,0,70.784,0h6.13C77.658,0,77.934.278,77.934,1.027Z"/></svg>